<svg viewBox="0 0 400 160" xmlns="http://www.w3.org/2000/svg">
  <defs>
    <linearGradient id="g" x1="0" y1="0" x2="400" y2="160" gradientUnits="userSpaceOnUse">
      <stop offset="0%" stop-color="#c49840" stop-opacity="0.22"/>
      <stop offset="100%" stop-color="#c49840" stop-opacity="0.04"/>
    </linearGradient>
    <pattern id="cross" x="0" y="0" width="24" height="24" patternUnits="userSpaceOnUse">
      <line x1="12" y1="6" x2="12" y2="18" stroke="#c49840" stroke-width="1" opacity="0.28"/>
      <line x1="6" y1="12" x2="18" y2="12" stroke="#c49840" stroke-width="1" opacity="0.28"/>
    </pattern>
  </defs>
  <rect width="400" height="160" fill="url(#g)"/>
  <rect width="400" height="160" fill="url(#cross)"/>
  <circle cx="360" cy="-20" r="100" fill="#c49840" opacity="0.12"/>
  <circle cx="30" cy="175" r="75" fill="#c49840" opacity="0.08"/>
  <circle cx="80"  cy="80" r="10" fill="#c49840" opacity="0.55"/>
  <circle cx="160" cy="50" r="10" fill="#c49840" opacity="0.55"/>
  <circle cx="160" cy="110" r="10" fill="#c49840" opacity="0.55"/>
  <circle cx="260" cy="50" r="10" fill="#c49840" opacity="0.55"/>
  <circle cx="260" cy="110" r="10" fill="#c49840" opacity="0.55"/>
  <circle cx="340" cy="80" r="10" fill="#c49840" opacity="0.55"/>
  <line x1="90" y1="75" x2="150" y2="55" stroke="#c49840" stroke-width="2" opacity="0.4"/>
  <line x1="90" y1="85" x2="150" y2="105" stroke="#c49840" stroke-width="2" opacity="0.4"/>
  <line x1="170" y1="50" x2="250" y2="50" stroke="#c49840" stroke-width="2" opacity="0.4"/>
  <line x1="170" y1="110" x2="250" y2="110" stroke="#c49840" stroke-width="2" opacity="0.4"/>
  <line x1="270" y1="55" x2="330" y2="75" stroke="#c49840" stroke-width="2" opacity="0.4"/>
  <line x1="270" y1="105" x2="330" y2="85" stroke="#c49840" stroke-width="2" opacity="0.4"/>
</svg>
