<svg viewBox="0 0 400 160" xmlns="http://www.w3.org/2000/svg">
  <defs>
    <linearGradient id="g" x1="0" y1="0" x2="400" y2="160" gradientUnits="userSpaceOnUse">
      <stop offset="0%" stop-color="#d4845a" stop-opacity="0.22"/>
      <stop offset="100%" stop-color="#d4845a" stop-opacity="0.04"/>
    </linearGradient>
  </defs>
  <rect width="400" height="160" fill="url(#g)"/>
  <circle cx="360" cy="-10" r="95" fill="#d4845a" opacity="0.12"/>
  <circle cx="30" cy="170" r="70" fill="#d4845a" opacity="0.08"/>
  <path d="M 200 170 A 130 130 0 0 1 70 170" fill="none" stroke="#d4845a" stroke-width="2.5" opacity="0.2"/>
  <path d="M 200 170 A 100 100 0 0 1 100 170" fill="none" stroke="#d4845a" stroke-width="2.5" opacity="0.3"/>
  <path d="M 200 170 A 72 72 0 0 1 128 170"  fill="none" stroke="#d4845a" stroke-width="2.5" opacity="0.4"/>
  <path d="M 200 170 A 48 48 0 0 1 152 170"  fill="none" stroke="#d4845a" stroke-width="2.5" opacity="0.55"/>
  <path d="M 200 170 A 26 26 0 0 1 174 170"  fill="none" stroke="#d4845a" stroke-width="2.5" opacity="0.7"/>
  <line x1="200" y1="170" x2="150" y2="80" stroke="#d4845a" stroke-width="2.5" stroke-linecap="round" opacity="0.6"/>
  <circle cx="200" cy="170" r="5" fill="#d4845a" opacity="0.7"/>
  <rect x="270" y="60" width="16" height="90" rx="3" fill="#d4845a" opacity="0.35"/>
  <rect x="294" y="40" width="16" height="110" rx="3" fill="#d4845a" opacity="0.5"/>
  <rect x="318" y="70" width="16" height="80" rx="3" fill="#d4845a" opacity="0.4"/>
  <rect x="342" y="50" width="16" height="100" rx="3" fill="#d4845a" opacity="0.45"/>
</svg>
