<svg viewBox="0 0 400 160" xmlns="http://www.w3.org/2000/svg">
  <defs>
    <linearGradient id="g" x1="0" y1="0" x2="400" y2="160" gradientUnits="userSpaceOnUse">
      <stop offset="0%" stop-color="#5f96c8" stop-opacity="0.22"/>
      <stop offset="100%" stop-color="#5f96c8" stop-opacity="0.04"/>
    </linearGradient>
    <pattern id="vlines" x="0" y="0" width="20" height="160" patternUnits="userSpaceOnUse">
      <line x1="10" y1="0" x2="10" y2="160" stroke="#5f96c8" stroke-width="1" opacity="0.22"/>
    </pattern>
  </defs>
  <rect width="400" height="160" fill="url(#g)"/>
  <rect width="400" height="160" fill="url(#vlines)"/>
  <circle cx="350" cy="-15" r="95" fill="#5f96c8" opacity="0.12"/>
  <circle cx="50" cy="175" r="72" fill="#5f96c8" opacity="0.08"/>
  <rect x="50" y="50" width="80" height="60" rx="8" fill="none" stroke="#5f96c8" stroke-width="2" opacity="0.5"/>
  <ellipse cx="90" cy="50" rx="30" ry="8" fill="#5f96c8" opacity="0.35"/>
  <ellipse cx="90" cy="58" rx="30" ry="8" fill="#5f96c8" opacity="0.2"/>
  <rect x="270" y="50" width="80" height="60" rx="8" fill="none" stroke="#5f96c8" stroke-width="2" opacity="0.5"/>
  <ellipse cx="310" cy="50" rx="30" ry="8" fill="#5f96c8" opacity="0.35"/>
  <ellipse cx="310" cy="58" rx="30" ry="8" fill="#5f96c8" opacity="0.2"/>
  <path d="M 140 72 C 180 55, 220 55, 262 72" fill="none" stroke="#5f96c8" stroke-width="2" opacity="0.45" marker-end="url(#arr)"/>
  <path d="M 262 88 C 220 105, 180 105, 140 88" fill="none" stroke="#5f96c8" stroke-width="1.5" opacity="0.3" stroke-dasharray="5 4"/>
  <path d="M 140 80 C 180 70, 220 70, 262 80" fill="none" stroke="#5f96c8" stroke-width="1.5" opacity="0.25" stroke-dasharray="5 4"/>
</svg>
