<svg viewBox="0 0 400 160" xmlns="http://www.w3.org/2000/svg">
  <defs>
    <linearGradient id="g" x1="0" y1="0" x2="400" y2="160" gradientUnits="userSpaceOnUse">
      <stop offset="0%" stop-color="#5fb87a" stop-opacity="0.22"/>
      <stop offset="100%" stop-color="#5fb87a" stop-opacity="0.04"/>
    </linearGradient>
    <pattern id="grid" x="0" y="0" width="20" height="20" patternUnits="userSpaceOnUse">
      <rect x="2" y="2" width="16" height="16" rx="2" fill="#5fb87a" opacity="0.1"/>
    </pattern>
  </defs>
  <rect width="400" height="160" fill="url(#g)"/>
  <rect width="400" height="160" fill="url(#grid)"/>
  <circle cx="340" cy="-20" r="90" fill="#5fb87a" opacity="0.12"/>
  <circle cx="40" cy="172" r="68" fill="#5fb87a" opacity="0.08"/>
  <rect x="2"  y="2"  width="16" height="16" rx="2" fill="#5fb87a" opacity="0.5"/>
  <rect x="22" y="2"  width="16" height="16" rx="2" fill="#5fb87a" opacity="0.5"/>
  <rect x="42" y="2"  width="16" height="16" rx="2" fill="#5fb87a" opacity="0.5"/>
  <rect x="22" y="22" width="16" height="16" rx="2" fill="#5fb87a" opacity="0.3"/>
  <rect x="42" y="22" width="16" height="16" rx="2" fill="#5fb87a" opacity="0.3"/>
  <path d="M 200 28 L 220 20 L 240 28 L 240 60 Q 240 78 220 86 Q 200 78 200 60 Z" fill="#5fb87a" opacity="0.55"/>
  <line x1="210" y1="52" x2="218" y2="60" stroke="white" stroke-width="2.5" stroke-linecap="round" opacity="0.7"/>
  <line x1="218" y1="60" x2="232" y2="44" stroke="white" stroke-width="2.5" stroke-linecap="round" opacity="0.7"/>
</svg>
