<svg viewBox="0 0 400 160" xmlns="http://www.w3.org/2000/svg">
  <defs>
    <linearGradient id="g" x1="0" y1="0" x2="400" y2="160" gradientUnits="userSpaceOnUse">
      <stop offset="0%" stop-color="#c49840" stop-opacity="0.22"/>
      <stop offset="100%" stop-color="#c49840" stop-opacity="0.04"/>
    </linearGradient>
    <pattern id="tri" x="0" y="0" width="28" height="24" patternUnits="userSpaceOnUse">
      <polygon points="14,2 26,22 2,22" fill="none" stroke="#c49840" stroke-width="1" opacity="0.22"/>
    </pattern>
  </defs>
  <rect width="400" height="160" fill="url(#g)"/>
  <rect width="400" height="160" fill="url(#tri)"/>
  <circle cx="360" cy="-15" r="95" fill="#c49840" opacity="0.12"/>
  <circle cx="35" cy="172" r="70" fill="#c49840" opacity="0.08"/>
  <circle cx="200" cy="32" r="10" fill="#c49840" opacity="0.55"/>
  <circle cx="140" cy="76" r="10" fill="#c49840" opacity="0.5"/>
  <circle cx="260" cy="76" r="10" fill="#c49840" opacity="0.5"/>
  <circle cx="100" cy="120" r="10" fill="#c49840" opacity="0.4"/>
  <circle cx="180" cy="120" r="10" fill="#c49840" opacity="0.4"/>
  <circle cx="220" cy="120" r="10" fill="#c49840" opacity="0.4"/>
  <circle cx="300" cy="120" r="10" fill="#c49840" opacity="0.4"/>
  <line x1="200" y1="42" x2="148" y2="68" stroke="#c49840" stroke-width="2" opacity="0.4"/>
  <line x1="200" y1="42" x2="252" y2="68" stroke="#c49840" stroke-width="2" opacity="0.4"/>
  <line x1="140" y1="86" x2="108" y2="112" stroke="#c49840" stroke-width="2" opacity="0.35"/>
  <line x1="140" y1="86" x2="172" y2="112" stroke="#c49840" stroke-width="2" opacity="0.35"/>
  <line x1="260" y1="86" x2="228" y2="112" stroke="#c49840" stroke-width="2" opacity="0.35"/>
  <line x1="260" y1="86" x2="292" y2="112" stroke="#c49840" stroke-width="2" opacity="0.35"/>
</svg>
